<?xml version="1.0" encoding="UTF-8"?>
<!DOCTYPE svg PUBLIC "-//W3C//DTD SVG 1.1//EN" "http://www.w3.org/Graphics/SVG/1.1/DTD/svg11.dtd">
<svg xmlns="http://www.w3.org/2000/svg" xml:space="preserve" width="400px" height="267px" version="1.1" style="shape-rendering:geometricPrecision; text-rendering:geometricPrecision; image-rendering:optimizeQuality; fill-rule:evenodd; clip-rule:evenodd"
viewBox="0 0 151.12 100.74"
 xmlns:xlink="http://www.w3.org/1999/xlink">
 <defs>
  <style type="text/css">
   <![CDATA[
    .fil0 {fill:#000000}
    .fil2 {fill:#CB1200}
    .fil1 {fill:#E0BD00}
    .fil3 {fill:#000000;fill-rule:nonzero}
   ]]>
  </style>
 </defs>
  <rect class="fil0" width="151.12" height="100.74"/>
  <rect class="fil1" y="67.16" width="151.12" height="33.58"/>
  <rect class="fil2" y="33.58" width="151.12" height="33.58"/>
  <path class="fil1" d="M53.53 26.98l44.72 0 0 34.68c-5,8.45 -12.64,14.47 -22.36,18.59 -9.72,-4.12 -17.36,-10.14 -22.36,-18.59l0 -34.68z"/>
  <path class="fil3" d="M53.53 25.4l46.29 0c0,12.23 -0.02,24.46 0,36.69l-0.22 0.37c-2.59,4.38 -5.87,8.13 -9.76,11.33 -3.87,3.17 -8.34,5.79 -13.34,7.91l-0.61 0.25 -0.61 -0.25c-5,-2.12 -9.47,-4.74 -13.34,-7.91 -3.89,-3.2 -7.17,-6.95 -9.76,-11.33l-0.22 -0.38 0 -36.68 1.57 0zm43.15 3.15l-41.57 0 0 32.68c2.37,3.91 5.33,7.27 8.83,10.14 3.47,2.85 7.48,5.22 11.95,7.17 4.47,-1.95 8.48,-4.32 11.95,-7.17 3.5,-2.88 6.47,-6.24 8.84,-10.15l0 -32.67z"/>
  <polygon class="fil0" points="68.62,60.7 71.66,57.66 71.66,43.42 67.03,43.42 67.03,52.32 64.22,54.97 64.22,52.32 64.22,43.42 60.96,43.42 60.96,59.34 58.15,61.99 58.15,59.34 58.15,43.42 58.15,40.6 58.15,37.95 60.96,40.6 71.66,40.6 71.66,36.6 67.34,36.6 71.66,32.77 80.13,32.77 80.13,40.6 90.82,40.6 93.63,37.95 93.63,40.6 93.63,43.42 93.63,59.34 93.63,61.99 90.82,59.34 90.82,43.42 87.57,43.42 87.57,52.32 87.57,54.97 84.76,52.32 84.76,43.42 80.13,43.42 80.13,57.66 83.17,60.7 75.89,67.98 "/>
</svg>
