<?xml version="1.0" encoding="UTF-8"?>
<!DOCTYPE svg PUBLIC "-//W3C//DTD SVG 1.1//EN" "http://www.w3.org/Graphics/SVG/1.1/DTD/svg11.dtd">
<svg xmlns="http://www.w3.org/2000/svg" xml:space="preserve" width="400px" height="267px" version="1.1" style="shape-rendering:geometricPrecision; text-rendering:geometricPrecision; image-rendering:optimizeQuality; fill-rule:evenodd; clip-rule:evenodd"
viewBox="0 0 322.85 215.23"
 xmlns:xlink="http://www.w3.org/1999/xlink">
 <defs>
  <style type="text/css">
   <![CDATA[
    .fil0 {fill:#FFFFFF1A}
    .fil1 {fill:#96989A;fill-rule:nonzero}
   ]]>
  </style>
 </defs>
 <rect class="fil0" width="322.85" height="215.23"/>
 <path class="fil1" d="M16.54 0l0 6.67 -9.8 0 0 10.57 -6.74 0 0 -17.24 16.54 0zm-16.54 31.14l6.74 0 0 27.81 -6.74 0 0 -27.81zm0 41.72l6.74 0 0 27.8 -6.74 0 0 -27.8zm0 41.71l6.74 0 0 27.81 -6.74 0 0 -27.81zm0 41.71l6.74 0 0 27.81 -6.74 0 0 -27.81zm0 41.71l6.74 0 0 10.57 9.8 0 0 6.67 -16.54 0 0 -17.24zm29.71 17.24l0 -6.67 26.35 0 0 6.67 -26.35 0zm39.52 0l0 -6.67 26.34 0 0 6.67 -26.34 0zm39.51 0l0 -6.67 26.34 0 0 6.67 -26.34 0zm39.52 0l0 -6.67 26.34 0 0 6.67 -26.34 0zm39.51 0l0 -6.67 26.34 0 0 6.67 -26.34 0zm39.51 0l0 -6.67 26.35 0 0 6.67 -26.35 0zm39.52 0l0 -6.67 26.34 0 0 6.67 -26.34 0zm39.51 0l0 -6.67 9.8 0 0 -10.57 6.74 0 0 17.24 -16.54 0zm16.54 -31.14l-6.74 0 0 -27.81 6.74 0 0 27.81zm0 -41.71l-6.74 0 0 -27.81 6.74 0 0 27.81zm0 -41.71l-6.74 0 0 -27.81 6.74 0 0 27.81zm0 -41.72l-6.74 0 0 -27.8 6.74 0 0 27.8zm0 -41.71l-6.74 0 0 -10.57 -9.8 0 0 -6.67 16.54 0 0 17.24zm-29.71 -17.24l0 6.67 -26.34 0 0 -6.67 26.34 0zm-39.51 0l0 6.67 -26.35 0 0 -6.67 26.35 0zm-39.52 0l0 6.67 -26.34 0 0 -6.67 26.34 0zm-39.51 0l0 6.67 -26.34 0 0 -6.67 26.34 0zm-39.52 0l0 6.67 -26.34 0 0 -6.67 26.34 0zm-39.51 0l0 6.67 -26.34 0 0 -6.67 26.34 0zm-39.51 0l0 6.67 -26.35 0 0 -6.67 26.35 0z"/>
</svg>
