<?xml version="1.0" encoding="UTF-8"?>
<!DOCTYPE svg PUBLIC "-//W3C//DTD SVG 1.1//EN" "http://www.w3.org/Graphics/SVG/1.1/DTD/svg11.dtd">
<svg xmlns="http://www.w3.org/2000/svg" xml:space="preserve" width="400px" height="267px" version="1.1" style="shape-rendering:geometricPrecision; text-rendering:geometricPrecision; image-rendering:optimizeQuality; fill-rule:evenodd; clip-rule:evenodd"
viewBox="0 0 2215.46 1476.97"
 xmlns:xlink="http://www.w3.org/1999/xlink">
 <defs>
  <style type="text/css">
   <![CDATA[
    .fil2 {fill:#1F304D}
    .fil1 {fill:#810A0A}
    .fil0 {fill:#EDEDED}
   ]]>
  </style>
 </defs>
  <rect class="fil0" y="0.02" width="2215.46" height="1476.95"/>
  <rect class="fil1" y="908.9" width="2215.46" height="113.61"/>
  <rect class="fil1" y="1363.35" width="2215.46" height="113.61"/>
  <rect class="fil1" y="1136.13" width="2215.46" height="113.61"/>
  <rect class="fil1" x="1191.89" y="681.68" width="1023.56" height="113.61"/>
  <rect class="fil1" x="1191.89" y="454.45" width="1023.56" height="113.61"/>
  <rect class="fil1" x="1191.89" y="227.23" width="1023.56" height="113.61"/>
  <rect class="fil1" x="1191.89" width="1023.56" height="113.61"/>
  <rect class="fil2" width="1191.89" height="795.29"/>
  <polygon class="fil0" points="1075.56,584.83 1092.96,638.76 1149.64,638.66 1103.73,671.87 1121.34,725.74 1075.56,692.34 1029.78,725.74 1047.39,671.87 1001.48,638.66 1058.15,638.76 "/>
  <polygon class="fil0" points="1075.56,408.2 1092.96,462.13 1149.64,462.03 1103.73,495.25 1121.34,549.11 1075.56,515.71 1029.78,549.11 1047.39,495.25 1001.48,462.03 1058.15,462.13 "/>
  <polygon class="fil0" points="994.98,228.14 1012.39,282.07 1069.06,281.97 1023.15,315.19 1040.76,369.05 994.98,335.65 949.2,369.05 966.81,315.19 920.9,281.97 977.57,282.07 "/>
  <polygon class="fil0" points="1075.56,54.95 1092.96,108.88 1149.64,108.78 1103.73,141.99 1121.34,195.86 1075.56,162.46 1029.78,195.86 1047.39,141.99 1001.48,108.78 1058.15,108.88 "/>
  <polygon class="fil0" points="915.28,584.83 932.69,638.76 989.36,638.66 943.45,671.87 961.06,725.74 915.28,692.34 869.51,725.74 887.12,671.87 841.21,638.66 897.88,638.76 "/>
  <polygon class="fil0" points="915.28,408.2 932.69,462.13 989.36,462.03 943.45,495.25 961.06,549.11 915.28,515.71 869.51,549.11 887.12,495.25 841.21,462.03 897.88,462.13 "/>
  <polygon class="fil0" points="834.71,228.14 852.12,282.07 908.79,281.97 862.88,315.19 880.49,369.05 834.71,335.65 788.93,369.05 806.54,315.19 760.63,281.97 817.3,282.07 "/>
  <polygon class="fil0" points="915.28,54.95 932.69,108.88 989.36,108.78 943.45,141.99 961.06,195.86 915.28,162.46 869.51,195.86 887.12,141.99 841.21,108.78 897.88,108.88 "/>
  <polygon class="fil0" points="755.01,584.83 772.42,638.76 829.09,638.66 783.18,671.87 800.79,725.74 755.01,692.34 709.23,725.74 726.84,671.87 680.93,638.66 737.61,638.76 "/>
  <polygon class="fil0" points="755.01,408.2 772.42,462.13 829.09,462.03 783.18,495.25 800.79,549.11 755.01,515.71 709.23,549.11 726.84,495.25 680.93,462.03 737.61,462.13 "/>
  <polygon class="fil0" points="674.44,228.14 691.85,282.07 748.52,281.97 702.61,315.19 720.22,369.05 674.44,335.65 628.66,369.05 646.27,315.19 600.36,281.97 657.03,282.07 "/>
  <polygon class="fil0" points="755.01,54.95 772.42,108.88 829.09,108.78 783.18,141.99 800.79,195.86 755.01,162.46 709.23,195.86 726.84,141.99 680.93,108.78 737.61,108.88 "/>
  <polygon class="fil0" points="594.74,584.83 612.15,638.76 668.82,638.66 622.91,671.87 640.52,725.74 594.74,692.34 548.96,725.74 566.57,671.87 520.66,638.66 577.33,638.76 "/>
  <polygon class="fil0" points="594.74,408.2 612.15,462.13 668.82,462.03 622.91,495.25 640.52,549.11 594.74,515.71 548.96,549.11 566.57,495.25 520.66,462.03 577.33,462.13 "/>
  <polygon class="fil0" points="514.17,228.14 531.57,282.07 588.24,281.97 542.33,315.19 559.95,369.05 514.17,335.65 468.39,369.05 486,315.19 440.09,281.97 496.76,282.07 "/>
  <polygon class="fil0" points="594.74,54.95 612.15,108.88 668.82,108.78 622.91,141.99 640.52,195.86 594.74,162.46 548.96,195.86 566.57,141.99 520.66,108.78 577.33,108.88 "/>
  <polygon class="fil0" points="434.47,584.83 451.88,638.76 508.55,638.66 462.64,671.87 480.25,725.74 434.47,692.34 388.69,725.74 406.3,671.87 360.39,638.66 417.06,638.76 "/>
  <polygon class="fil0" points="434.47,408.2 451.88,462.13 508.55,462.03 462.64,495.25 480.25,549.11 434.47,515.71 388.69,549.11 406.3,495.25 360.39,462.03 417.06,462.13 "/>
  <polygon class="fil0" points="353.89,228.14 371.3,282.07 427.97,281.97 382.06,315.19 399.67,369.05 353.89,335.65 308.12,369.05 325.73,315.19 279.82,281.97 336.49,282.07 "/>
  <polygon class="fil0" points="434.47,54.95 451.88,108.88 508.55,108.78 462.64,141.99 480.25,195.86 434.47,162.46 388.69,195.86 406.3,141.99 360.39,108.78 417.06,108.88 "/>
  <polygon class="fil0" points="274.2,584.83 291.6,638.76 348.27,638.66 302.36,671.87 319.98,725.74 274.2,692.34 228.42,725.74 246.03,671.87 200.12,638.66 256.79,638.76 "/>
  <polygon class="fil0" points="274.2,408.2 291.6,462.13 348.27,462.03 302.36,495.25 319.98,549.11 274.2,515.71 228.42,549.11 246.03,495.25 200.12,462.03 256.79,462.13 "/>
  <polygon class="fil0" points="193.62,228.14 211.03,282.07 267.7,281.97 221.79,315.19 239.4,369.05 193.62,335.65 147.84,369.05 165.45,315.19 119.54,281.97 176.21,282.07 "/>
  <polygon class="fil0" points="274.2,54.95 291.6,108.88 348.27,108.78 302.36,141.99 319.98,195.86 274.2,162.46 228.42,195.86 246.03,141.99 200.12,108.78 256.79,108.88 "/>
  <polygon class="fil0" points="113.92,584.83 131.33,638.76 188,638.66 142.09,671.87 159.7,725.74 113.92,692.34 68.15,725.74 85.76,671.87 39.85,638.66 96.52,638.76 "/>
  <polygon class="fil0" points="113.92,408.2 131.33,462.13 188,462.03 142.09,495.25 159.7,549.11 113.92,515.71 68.15,549.11 85.76,495.25 39.85,462.03 96.52,462.13 "/>
  <polygon class="fil0" points="113.92,54.95 131.33,108.88 188,108.78 142.09,141.99 159.7,195.86 113.92,162.46 68.15,195.86 85.76,141.99 39.85,108.78 96.52,108.88 "/>
</svg>
