<?xml version="1.0" encoding="UTF-8"?>
<!DOCTYPE svg PUBLIC "-//W3C//DTD SVG 1.1//EN" "http://www.w3.org/Graphics/SVG/1.1/DTD/svg11.dtd">
<svg xmlns="http://www.w3.org/2000/svg" xml:space="preserve" width="400px" height="267px" version="1.1" style="shape-rendering:geometricPrecision; text-rendering:geometricPrecision; image-rendering:optimizeQuality; fill-rule:evenodd; clip-rule:evenodd"
viewBox="0 0 437.88 291.92"
 xmlns:xlink="http://www.w3.org/1999/xlink">
 <defs>
  <style type="text/css">
   <![CDATA[
    .str0 {stroke:black;stroke-width:3.86;stroke-miterlimit:22.9256;stroke-opacity:0.000000}
    .fil4 {fill:none;fill-rule:nonzero}
    .fil0 {fill:#A80B0B}
    .fil2 {fill:#FCD116;fill-rule:nonzero}
    .fil3 {fill:#FFCC00;fill-rule:nonzero}
    .fil1 {fill:black;fill-rule:nonzero;fill-opacity:0.000000}
    .fil5 {fill:#DE0000;fill-rule:nonzero;fill-opacity:0.000000}
   ]]>
  </style>
 </defs>
  <rect class="fil0" width="437.88" height="291.92"/>
  <polygon class="fil1" points="177.11,121.94 265.79,121.94 265.79,33.26 177.11,33.26 "/>
  <polygon class="fil1" points="199.87,105.98 207.56,80.56 186.28,66.07 212.88,66.07 221.45,42.13 228.55,66.07 255.44,66.07 235.34,80.56 243.03,105.98 221.45,90.9 "/>
  <path class="fil2" d="M197.75 105.33l7.22 -23.86 -25.88 -17.61 32.23 0 10.33 -28.85 8.54 28.85 32.11 0 -24.38 17.56 9.07 30.02 -25.54 -17.85 -25.54 17.85 1.84 -6.11zm11.93 -24.13l-5.84 19.31 17.61 -12.3 17.61 12.3 -6.29 -20.82 15.82 -11.4 -21.69 0 -5.65 -19.04 -6.81 19.04 -20.97 0 16.68 11.35 -0.47 1.56z"/>
  <path class="fil3" d="M279.16 210.22c-5.48,1.48 -11.32,1.96 -16.64,3.79 9.01,-7.79 8.49,-19.85 14.5,-29.03 1.92,-2.6 3.5,-5.32 5.73,-7.78 -3.65,7.39 -2.07,16.99 -6.27,24.17 -1.62,2.85 -3.93,5.62 -6.49,7.86 0.84,-0.03 1.57,-0.76 2.31,-1.25 6.82,-6.87 15.73,-8.79 23.11,-14.37 2.96,-2.37 5.67,-5.49 6.97,-8.85 -1.4,11.39 -12.64,22.07 -23.22,25.46l0 0z"/>
  <path class="fil4 str0" d="M279.16 210.22c-5.48,1.48 -11.32,1.96 -16.64,3.79 9.01,-7.79 8.49,-19.85 14.5,-29.03 1.92,-2.6 3.5,-5.32 5.73,-7.78 -3.65,7.39 -2.07,16.99 -6.27,24.17 -1.62,2.85 -3.93,5.62 -6.49,7.86 0.84,-0.03 1.57,-0.76 2.31,-1.25 6.82,-6.87 15.73,-8.79 23.11,-14.37 2.96,-2.37 5.67,-5.49 6.97,-8.85 -1.4,11.39 -12.64,22.07 -23.22,25.46l0 0z"/>
  <path class="fil3" d="M303.74 164.1c-3.34,4.79 -7.38,9.25 -10.46,14.11 0.34,-3.85 0.8,-8.59 -0.69,-12.24 -2.58,-7.87 -4.85,-15.85 -5.58,-24.48l0.1 -3.3c1.94,8.81 10.53,14.87 9.98,24.76 0.2,2.39 -0.53,4.43 -0.98,6.54l0.15 0.15 0.38 -0.43c1.28,-4.85 1.92,-9.95 3.9,-14.48 2.81,-6.51 6.33,-13.08 4.89,-20.94 4.28,9.27 2.99,21.65 -1.69,30.31l0 0z"/>
  <path class="fil4 str0" d="M303.74 164.1c-3.34,4.79 -7.38,9.25 -10.46,14.11 0.34,-3.85 0.8,-8.59 -0.69,-12.24 -2.58,-7.87 -4.85,-15.85 -5.58,-24.48l0.1 -3.3c1.94,8.81 10.53,14.87 9.98,24.76 0.2,2.39 -0.53,4.43 -0.98,6.54l0.15 0.15 0.38 -0.43c1.28,-4.85 1.92,-9.95 3.9,-14.48 2.81,-6.51 6.33,-13.08 4.89,-20.94 4.28,9.27 2.99,21.65 -1.69,30.31l0 0z"/>
  <path class="fil3" d="M298.47 114.16c5.63,7.7 6.86,19.96 2.76,28.78 -1.52,3.74 -2.6,7.73 -3.2,11.87 -0.29,-0.72 -0.36,-1.68 -0.61,-2.47 -2.24,-8.64 -10.34,-14.8 -13.67,-22.94 -1.06,-2.67 -1.96,-5.42 -2.46,-8.31 3.56,6.64 12.33,10.07 14.72,17.39 0.98,1.85 0.93,4.16 1.54,6.15 0.12,0 0.25,-0.09 0.25,-0.23 -1.05,-7.53 -0.73,-15.42 0.28,-22.87 -0.05,-4.03 -0.44,-7.94 -2.67,-11.06 1.43,0.84 2.07,2.44 3.06,3.69l0 0z"/>
  <path class="fil4 str0" d="M298.47 114.16c5.63,7.7 6.86,19.96 2.76,28.78 -1.52,3.74 -2.6,7.73 -3.2,11.87 -0.29,-0.72 -0.36,-1.68 -0.61,-2.47 -2.24,-8.64 -10.34,-14.8 -13.67,-22.94 -1.06,-2.67 -1.96,-5.42 -2.46,-8.31 3.56,6.64 12.33,10.07 14.72,17.39 0.98,1.85 0.93,4.16 1.54,6.15 0.12,0 0.25,-0.09 0.25,-0.23 -1.05,-7.53 -0.73,-15.42 0.28,-22.87 -0.05,-4.03 -0.44,-7.94 -2.67,-11.06 1.43,0.84 2.07,2.44 3.06,3.69l0 0z"/>
  <path class="fil3" d="M294.5 112.69c1.48,6.74 -0.68,13.3 0.68,20.11l-0.05 0.06c-3.64,-7.21 -11.36,-10.62 -16.67,-16.39 -3.08,-3.43 -4.42,-7.6 -5.19,-12.02 3.04,7.4 11.26,9.03 15.97,15.27 1.58,1.44 2.1,3.43 3.11,5.06l0.17 -0.16c-2.71,-5.84 -3.62,-12.41 -5.51,-18.64 -0.95,-2.7 -2.83,-5.35 -5.35,-7.05 6.19,1.28 11.55,7.79 12.84,13.76l0 0z"/>
  <path class="fil4 str0" d="M294.5 112.69c1.48,6.74 -0.68,13.3 0.68,20.11l-0.05 0.06c-3.64,-7.21 -11.36,-10.62 -16.67,-16.39 -3.08,-3.43 -4.42,-7.6 -5.19,-12.02 3.04,7.4 11.26,9.03 15.97,15.27 1.58,1.44 2.1,3.43 3.11,5.06l0.17 -0.16c-2.71,-5.84 -3.62,-12.41 -5.51,-18.64 -0.95,-2.7 -2.83,-5.35 -5.35,-7.05 6.19,1.28 11.55,7.79 12.84,13.76l0 0z"/>
  <path class="fil3" d="M277.95 97.22c4.66,4.21 6.77,9.66 8.13,15.31l0.77 1.79c-6.76,-4.91 -12.91,-11.51 -17.23,-18.48l-5.28 -5.38c4.64,1.99 9.64,3.17 13.61,6.76l0 0z"/>
  <path class="fil4 str0" d="M277.95 97.22c4.66,4.21 6.77,9.66 8.13,15.31l0.77 1.79c-6.76,-4.91 -12.91,-11.51 -17.23,-18.48l-5.28 -5.38c4.64,1.99 9.64,3.17 13.61,6.76l0 0z"/>
  <path class="fil3" d="M171.08 91.35c-4.68,4.14 -7.92,9.37 -11.39,14.25 -3.11,3.88 -7.09,6.44 -10.62,9.78 1.91,-3.98 1.97,-8.73 4.68,-12.39 3.84,-6.76 10.96,-9.14 17.33,-11.64z"/>
  <path class="fil4 str0" d="M171.08 91.35c-4.68,4.14 -7.92,9.37 -11.39,14.25 -3.11,3.88 -7.09,6.44 -10.62,9.78 1.91,-3.98 1.97,-8.73 4.68,-12.39 3.84,-6.76 10.96,-9.14 17.33,-11.64z"/>
  <path class="fil3" d="M145.5 105.75c2.27,-2.85 5.16,-4.83 8.4,-5.67 -6.3,4.37 -5.89,12.19 -7.89,18.7 -0.63,2.4 -1.74,4.62 -2.29,7.08l0.16 0.13c1.05,-2.78 2.89,-5.42 5.19,-7.69 4.48,-4.17 11.1,-6.77 13.29,-12.93 -0.1,8.57 -7.18,15.3 -13.96,20.11 -2.8,2.48 -5.5,5.3 -7.03,8.48 -0.15,-2.16 0.31,-4.33 0.16,-6.65 -0.74,-7.48 -1.27,-16.01 3.97,-21.56l0 0z"/>
  <path class="fil4 str0" d="M145.5 105.75c2.27,-2.85 5.16,-4.83 8.4,-5.67 -6.3,4.37 -5.89,12.19 -7.89,18.7 -0.63,2.4 -1.74,4.62 -2.29,7.08l0.16 0.13c1.05,-2.78 2.89,-5.42 5.19,-7.69 4.48,-4.17 11.1,-6.77 13.29,-12.93 -0.1,8.57 -7.18,15.3 -13.96,20.11 -2.8,2.48 -5.5,5.3 -7.03,8.48 -0.15,-2.16 0.31,-4.33 0.16,-6.65 -0.74,-7.48 -1.27,-16.01 3.97,-21.56l0 0z"/>
  <path class="fil3" d="M132.75 131.32c-0.19,-7.57 2.93,-13.76 7.32,-19.41 0.13,-0.06 0.22,-0.19 0.38,-0.16 -4.83,7.42 -0.83,16.75 -1.05,25.18l-0.64 8.63c0.09,0.07 0.09,0.33 0.32,0.23 0.28,-0.97 0.35,-1.99 0.54,-2.98 1.14,-6.96 7.13,-11.9 12.37,-16.72 1.12,-1.25 2.11,-2.53 2.68,-4.01 -0.43,3.47 -1.51,6.96 -2.93,10.17 -4.08,8.01 -11.6,14.59 -12.98,23.77 -0.67,-8.8 -6.6,-15.37 -6.01,-24.7z"/>
  <path class="fil4 str0" d="M132.75 131.32c-0.19,-7.57 2.93,-13.76 7.32,-19.41 0.13,-0.06 0.22,-0.19 0.38,-0.16 -4.83,7.42 -0.83,16.75 -1.05,25.18l-0.64 8.63c0.09,0.07 0.09,0.33 0.32,0.23 0.28,-0.97 0.35,-1.99 0.54,-2.98 1.14,-6.96 7.13,-11.9 12.37,-16.72 1.12,-1.25 2.11,-2.53 2.68,-4.01 -0.43,3.47 -1.51,6.96 -2.93,10.17 -4.08,8.01 -11.6,14.59 -12.98,23.77 -0.67,-8.8 -6.6,-15.37 -6.01,-24.7z"/>
  <path class="fil3" d="M129.09 142.1c0.54,-2.37 0.95,-4.82 1.98,-7 -1.94,10.02 4.74,17.24 6.93,25.92 0.92,3.25 1.14,6.73 2.45,9.78 0.13,0.07 0.23,-0.06 0.31,-0.16 -3.27,-9.22 1.45,-17.79 6.18,-25.01 1.15,-1.96 1.81,-4.14 2.38,-6.39 0.51,4.17 -0.54,8.98 -1.14,13.32 -1.15,5.51 -2.87,10.74 -4.36,16.09 -0.99,3.35 -0.73,7.12 -0.22,10.62l-0.48 -0.38c-3.47,-6.45 -10.34,-11.49 -12.38,-18.54 -1.68,-5.62 -2.8,-12.13 -1.65,-18.25l0 0z"/>
  <path class="fil4 str0" d="M129.09 142.1c0.54,-2.37 0.95,-4.82 1.98,-7 -1.94,10.02 4.74,17.24 6.93,25.92 0.92,3.25 1.14,6.73 2.45,9.78 0.13,0.07 0.23,-0.06 0.31,-0.16 -3.27,-9.22 1.45,-17.79 6.18,-25.01 1.15,-1.96 1.81,-4.14 2.38,-6.39 0.51,4.17 -0.54,8.98 -1.14,13.32 -1.15,5.51 -2.87,10.74 -4.36,16.09 -0.99,3.35 -0.73,7.12 -0.22,10.62l-0.48 -0.38c-3.47,-6.45 -10.34,-11.49 -12.38,-18.54 -1.68,-5.62 -2.8,-12.13 -1.65,-18.25l0 0z"/>
  <path class="fil3" d="M128.77 161.66c0.77,10.62 12.09,16.23 17.34,25.02 1.24,1.8 2.32,3.79 3.98,5.29 -0.26,-1.13 -1.31,-2.08 -1.69,-3.24 -1.84,-3.68 -2.51,-8.08 -2.07,-12.53 0.51,-5.43 2.77,-10.46 1.91,-16.16 4.61,10.02 3.21,22.54 5.79,33.41 0.67,2.37 2.03,4.49 2.93,6.76 -9.48,-6.5 -22.4,-12.69 -26.6,-24.62 -1.77,-4.11 -1.97,-9.2 -1.59,-13.93l0 0z"/>
  <path class="fil4 str0" d="M128.77 161.66c0.77,10.62 12.09,16.23 17.34,25.02 1.24,1.8 2.32,3.79 3.98,5.29 -0.26,-1.13 -1.31,-2.08 -1.69,-3.24 -1.84,-3.68 -2.51,-8.08 -2.07,-12.53 0.51,-5.43 2.77,-10.46 1.91,-16.16 4.61,10.02 3.21,22.54 5.79,33.41 0.67,2.37 2.03,4.49 2.93,6.76 -9.48,-6.5 -22.4,-12.69 -26.6,-24.62 -1.77,-4.11 -1.97,-9.2 -1.59,-13.93l0 0z"/>
  <path class="fil3" d="M134.43 186.04c5.29,12.06 18.52,13.05 27.39,20.39 1.63,1.46 3.34,2.7 5.18,3.57l0.1 -0.1c-2.04,-1.86 -4.39,-3.97 -5.82,-6.38 -5.19,-7.28 -3.37,-17.48 -7.25,-25.31 3.53,4.27 6.74,8.7 8.88,13.54 3.17,7.89 4.39,16.81 11.73,22.78 -7.95,-2.64 -17.26,-1.9 -24.28,-6.84 -7.66,-4.74 -14.49,-12.8 -15.93,-21.65l0 0z"/>
  <path class="fil4 str0" d="M134.43 186.04c5.29,12.06 18.52,13.05 27.39,20.39 1.63,1.46 3.34,2.7 5.18,3.57l0.1 -0.1c-2.04,-1.86 -4.39,-3.97 -5.82,-6.38 -5.19,-7.28 -3.37,-17.48 -7.25,-25.31 3.53,4.27 6.74,8.7 8.88,13.54 3.17,7.89 4.39,16.81 11.73,22.78 -7.95,-2.64 -17.26,-1.9 -24.28,-6.84 -7.66,-4.74 -14.49,-12.8 -15.93,-21.65l0 0z"/>
  <path class="fil3" d="M148.01 208.53c8.47,9.71 22.31,6.47 33.6,9.01 1.59,0.22 3.05,0.87 4.74,0.61 -1.35,-0.86 -3.22,-0.77 -4.68,-1.55 -8.85,-3.13 -10.14,-12.79 -14.95,-19.3 6.14,4.11 11.29,9.65 16.95,15.02 4.07,3.59 8.97,5.25 14.13,6.3 -1.24,0.46 -2.87,0.34 -4.2,0.69 -9.27,2.3 -19.56,6.05 -29.39,2.69 -6.39,-2.03 -12.98,-7.12 -16.2,-13.47l0 0z"/>
  <path class="fil4 str0" d="M148.01 208.53c8.47,9.71 22.31,6.47 33.6,9.01 1.59,0.22 3.05,0.87 4.74,0.61 -1.35,-0.86 -3.22,-0.77 -4.68,-1.55 -8.85,-3.13 -10.14,-12.79 -14.95,-19.3 6.14,4.11 11.29,9.65 16.95,15.02 4.07,3.59 8.97,5.25 14.13,6.3 -1.24,0.46 -2.87,0.34 -4.2,0.69 -9.27,2.3 -19.56,6.05 -29.39,2.69 -6.39,-2.03 -12.98,-7.12 -16.2,-13.47l0 0z"/>
  <path class="fil3" d="M262.98 231.17c-9.55,3.59 -19.51,-0.16 -26.97,-5.86 -3.01,-1.94 -5.67,-4.72 -9.58,-4.48 -1.41,-0.02 -2.78,0.05 -3.98,0.4 7.24,3.4 13.97,8.08 20.12,14.07 -1.04,1.2 -2.38,2.31 -3.65,3.34 -5.92,-6.44 -12.49,-12.64 -19.84,-16.26 -1.44,0.19 -2.81,1.06 -4.11,1.77 -5.98,3.81 -11.9,8.72 -16.34,14.73l-3.83 -3.19c6.1,-6.22 12.85,-11.06 20.23,-14.52 -7.25,-2.32 -11.99,3.81 -17.49,6.92 -6.42,4.52 -15.65,6.64 -23.4,3.53 -4.17,-1.6 -8.21,-3.95 -11.23,-7.77 6.1,4.24 15.19,4.69 22.13,1.93 9.31,-4.07 18.99,-9.23 30.22,-6.76 1.75,0.03 3.45,1.79 5.11,0.29 8.34,-2.19 17.79,-0.69 24.98,3.16l7.4 2.99c6.88,2.57 15.78,1.86 21.68,-2.37 -3.03,3.81 -7.18,6.54 -11.45,8.08l0 0z"/>
  <path class="fil4 str0" d="M262.98 231.17c-9.55,3.59 -19.51,-0.16 -26.97,-5.86 -3.01,-1.94 -5.67,-4.72 -9.58,-4.48 -1.41,-0.02 -2.78,0.05 -3.98,0.4 7.24,3.4 13.97,8.08 20.12,14.07 -1.04,1.2 -2.38,2.31 -3.65,3.34 -5.92,-6.44 -12.49,-12.64 -19.84,-16.26 -1.44,0.19 -2.81,1.06 -4.11,1.77 -5.98,3.81 -11.9,8.72 -16.34,14.73l-3.83 -3.19c6.1,-6.22 12.85,-11.06 20.23,-14.52 -7.25,-2.32 -11.99,3.81 -17.49,6.92 -6.42,4.52 -15.65,6.64 -23.4,3.53 -4.17,-1.6 -8.21,-3.95 -11.23,-7.77 6.1,4.24 15.19,4.69 22.13,1.93 9.31,-4.07 18.99,-9.23 30.22,-6.76 1.75,0.03 3.45,1.79 5.11,0.29 8.34,-2.19 17.79,-0.69 24.98,3.16l7.4 2.99c6.88,2.57 15.78,1.86 21.68,-2.37 -3.03,3.81 -7.18,6.54 -11.45,8.08l0 0z"/>
  <path class="fil3" d="M273.2 221.23c-10.71,4.08 -21.49,-0.93 -31.76,-2.61l-1.98 -0.25 0 -0.06c4.91,-1.12 9.68,-2.6 13.58,-6.16 5.76,-5.58 10.88,-11.32 17.27,-15.72 -4.74,6.13 -5.24,14.86 -13.07,18.8 -1.94,1.28 -4.38,1.5 -6.38,2.47 2.85,0.06 5.46,-0.97 8.29,-1.26 10.5,-1.66 22.51,0.05 29.87,-8.97 -2.73,6.28 -9.58,11.55 -15.82,13.76l0 0z"/>
  <path class="fil4 str0" d="M273.2 221.23c-10.71,4.08 -21.49,-0.93 -31.76,-2.61l-1.98 -0.25 0 -0.06c4.91,-1.12 9.68,-2.6 13.58,-6.16 5.76,-5.58 10.88,-11.32 17.27,-15.72 -4.74,6.13 -5.24,14.86 -13.07,18.8 -1.94,1.28 -4.38,1.5 -6.38,2.47 2.85,0.06 5.46,-0.97 8.29,-1.26 10.5,-1.66 22.51,0.05 29.87,-8.97 -2.73,6.28 -9.58,11.55 -15.82,13.76l0 0z"/>
  <path class="fil3" d="M292.68 190.82c-4.24,2.79 -8.53,5.38 -12.59,8.56l0 -0.39c6.23,-10.44 3.18,-24.78 7.02,-36.27l1.43 -3.85c-0.8,7.16 2.28,13.22 2.07,20.4 -0.22,4.34 -1.63,8.19 -3.88,11.65l0.38 0c3.05,-4.04 5.43,-8.34 9,-12.19 5.54,-5.38 11.17,-10.9 11.89,-18.38 1.88,12.48 -5.06,23.41 -15.32,30.47z"/>
  <path class="fil4 str0" d="M292.68 190.82c-4.24,2.79 -8.53,5.38 -12.59,8.56l0 -0.39c6.23,-10.44 3.18,-24.78 7.02,-36.27l1.43 -3.85c-0.8,7.16 2.28,13.22 2.07,20.4 -0.22,4.34 -1.63,8.19 -3.88,11.65l0.38 0c3.05,-4.04 5.43,-8.34 9,-12.19 5.54,-5.38 11.17,-10.9 11.89,-18.38 1.88,12.48 -5.06,23.41 -15.32,30.47z"/>
  <polygon class="fil5" points="158.41,213.48 276.89,213.48 276.89,94.46 158.41,94.46 "/>
  <path class="fil2" d="M217.56 109.41c23.29,6.55 46.85,23.85 44.28,53.41 -2.58,29.53 -34.89,41.91 -66.68,14.31l-1.14 1.26c0.54,0.71 1.34,2.8 0.01,4.24 -1.25,1.37 -3.19,-0.16 -4.25,0.93 -1.25,1.3 -0.88,0.79 -2.52,4.61 -3.88,9.03 -10.69,11.73 -13,9.52 -2.38,-2.25 -0.63,-8.72 7.4,-13.52 4.04,-2.41 4.24,-2.38 4.87,-3.45 0.72,-1.2 -1.22,-3.06 0.15,-4.69 1.42,-1.68 3.26,-1.01 4,-0.48l3.52 -4.38c30.97,17.41 49.38,9.28 53.75,-6.04 4.3,-15.04 3.1,-33.58 -30.39,-55.72l0 0z"/>
  <path class="fil2" d="M197.4 134.31c-1.93,1.95 -2.41,1.83 -1.49,2.76l58.67 61.08c0.92,0.93 3.22,0.11 5.16,-1.84 1.94,-1.94 2.75,-4.26 1.83,-5.18l-61.35 -58.26c-0.92,-0.92 -0.88,-0.5 -2.82,1.44z"/>
  <polygon class="fil2" points="193.63,153.32 218.81,128.02 204.62,125.44 185.25,144.91 "/>
</svg>
